<?xml version="1.0" encoding="utf-8"?>
<!-- Generator: Adobe Illustrator 18.0.0, SVG Export Plug-In . SVG Version: 6.00 Build 0)  -->
<!DOCTYPE svg PUBLIC "-//W3C//DTD SVG 1.1//EN" "http://www.w3.org/Graphics/SVG/1.1/DTD/svg11.dtd">
<svg version="1.1" id="Layer_1" xmlns="http://www.w3.org/2000/svg" xmlns:xlink="http://www.w3.org/1999/xlink" x="0px" y="0px"
	 viewBox="0 366.8 1920 425.4" enable-background="new 0 366.8 1920 425.4" xml:space="preserve">
<g>
	<defs>
		<rect id="SVGID_1_" y="366.8" width="1920" height="425.4"/>
	</defs>
	<clipPath id="SVGID_2_">
		<use xlink:href="#SVGID_1_"  overflow="visible"/>
	</clipPath>
	<g id="Layer_1_copy" clip-path="url(#SVGID_2_)">
		
			<linearGradient id="SVGID_3_" gradientUnits="userSpaceOnUse" x1="960.4973" y1="469.196" x2="962.4392" y2="-12.3941" gradientTransform="matrix(1 0 0 -1 0 992.1425)">
			<stop  offset="0" style="stop-color:#95F7FF"/>
			<stop  offset="0.1119" style="stop-color:#B3F9FF"/>
			<stop  offset="0.2444" style="stop-color:#CEFBFF"/>
			<stop  offset="0.388" style="stop-color:#E4FDFF"/>
			<stop  offset="0.5461" style="stop-color:#F3FEFF"/>
			<stop  offset="0.7299" style="stop-color:#FCFFFF"/>
			<stop  offset="1" style="stop-color:#FFFFFF"/>
		</linearGradient>
		<path fill="url(#SVGID_3_)" d="M1827.3,430.6c-42-11-86.6,3.4-114.5,36.6c-45.6,54.4-98.5,138.7-188.4,138.6
			c-132.1-0.1-112.9-221.2-220.9-219.2c-108,2-170.2,158-332.2,148s-95-150-247-146c-152,4-116,160-278,162.4s-132-150.4-230-148.4
			c-51.5,1.1-138.4,65.6-215,109.3v479.9h1920V468.7C1921.3,468.7,1877.3,443.6,1827.3,430.6z"/>
	</g>
	<g id="Layer_3" opacity="0.15" clip-path="url(#SVGID_2_)">
		<g>
			<g>
				
					<linearGradient id="SVGID_4_" gradientUnits="userSpaceOnUse" x1="-143.9835" y1="299.686" x2="2433.5107" y2="299.686" gradientTransform="matrix(1 6.178491e-003 6.178491e-003 -1 -2.3626 985.6737)">
					<stop  offset="0" style="stop-color:#FFF27D"/>
					<stop  offset="0.2599" style="stop-color:#63AEEF"/>
					<stop  offset="0.5108" style="stop-color:#5AAEEF"/>
					<stop  offset="0.7903" style="stop-color:#6EA79D"/>
					<stop  offset="1" style="stop-color:#52D094"/>
				</linearGradient>
				<path fill="none" stroke="url(#SVGID_4_)" stroke-width="3" stroke-miterlimit="10" d="M-143.7,785.7
					c48.2,117,257.6-130.1,355.2-138.8c97.7-8.8,78.3,145.8,239.7,132.2s114.7-166.8,266.1-181.3s94.2,129.8,256.5,128.6
					s146.6-154.7,254.2-164.1c107.7-9.4,161.8,221,293.9,215.9c131.9-5.1,173.3-158,252-130c55.2,12.2,227.3,113.5,342.2,64.3
					c301.2-129,317.2-133,317.2-133"/>
				
					<linearGradient id="SVGID_5_" gradientUnits="userSpaceOnUse" x1="-144.1133" y1="294.2857" x2="2433.0261" y2="294.2857" gradientTransform="matrix(1 5.991264e-003 5.991264e-003 -0.9394 -2.291 955.8048)">
					<stop  offset="0" style="stop-color:#FEF281"/>
					<stop  offset="0.2599" style="stop-color:#66B0EF"/>
					<stop  offset="0.5108" style="stop-color:#5EB0EF"/>
					<stop  offset="0.7903" style="stop-color:#71AAA0"/>
					<stop  offset="1" style="stop-color:#56D197"/>
				</linearGradient>
				<path fill="none" stroke="url(#SVGID_5_)" stroke-width="3" stroke-miterlimit="10" d="M-143.9,777.3
					C-96,894.4,114,647.8,211.6,639.3c97.7-8.6,78,146,239.4,132.7C612.4,758.8,566,605.5,717.5,591.4
					c151.4-14.1,93.9,130,256.2,129.2c161.8-0.9,148.5-153.5,255.6-163.5c10.7-1,20.9,0.3,30.7,3.5
					c79.4,25.9,129.9,177.4,224.8,207.1c12.1,3.8,24.9,5.6,38.4,5c73-3.3,118.3-52.2,157.4-90.1c31.2-30.1,59.3-53.5,94.5-41.2
					c1.9,0.4,4,1,6.2,1.6c64.2,18.4,226.6,111.3,336.4,64.8c301.5-128.3,315.1-131.7,315.1-131.7"/>
				
					<linearGradient id="SVGID_6_" gradientUnits="userSpaceOnUse" x1="-144.2382" y1="288.1426" x2="2432.5466" y2="288.1426" gradientTransform="matrix(1 5.804037e-003 5.804037e-003 -0.8788 -2.2195 925.9359)">
					<stop  offset="0" style="stop-color:#FCF385"/>
					<stop  offset="0.2599" style="stop-color:#6AB3F0"/>
					<stop  offset="0.5108" style="stop-color:#61B3F0"/>
					<stop  offset="0.7903" style="stop-color:#74ACA3"/>
					<stop  offset="1" style="stop-color:#5AD39A"/>
				</linearGradient>
				<path fill="none" stroke="url(#SVGID_6_)" stroke-width="3" stroke-miterlimit="10" d="M-144,768.9
					C-96.4,886.1,114.1,640,211.7,631.8c97.7-8.3,77.6,146.1,239,133.3c161.4-12.9,115.5-166.2,266.9-180s93.6,130.2,255.9,129.7
					c161.3-0.5,150.4-152.3,257-162.8c10.7-1.1,20.9,0.2,30.7,3.3c80.3,25,128.6,178.7,224.7,207.5c12.2,3.7,25,5.4,38.5,4.7
					c72.7-3.9,118-53.3,157.1-91.3c30.9-29.9,59.5-53.4,94.8-41.2c1.9,0.4,4,1,6.2,1.6c67.4,19.3,228,112.4,336.7,67
					c301.7-127.6,313-130.5,313-130.5"/>
				
					<linearGradient id="SVGID_7_" gradientUnits="userSpaceOnUse" x1="-144.3572" y1="281.0891" x2="2432.0747" y2="281.0891" gradientTransform="matrix(1 5.616810e-003 5.616810e-003 -0.8182 -2.1479 896.067)">
					<stop  offset="0" style="stop-color:#FBF389"/>
					<stop  offset="0.2599" style="stop-color:#6DB5F0"/>
					<stop  offset="0.5108" style="stop-color:#65B5F0"/>
					<stop  offset="0.7903" style="stop-color:#77AFA6"/>
					<stop  offset="1" style="stop-color:#5DD49E"/>
				</linearGradient>
				<path fill="none" stroke="url(#SVGID_7_)" stroke-width="3" stroke-miterlimit="10" d="M-144.2,760.6
					c47.4,117.3,258.4-128.3,356-136.3c97.7-8.1,77.3,146.3,238.7,133.8c161.4-12.5,115.8-166,267.3-179.4S811.2,709,973.5,708.9
					c160.7-0.2,152.3-151.1,258.3-162.2c10.7-1.1,20.9,0,30.8,3c81.1,24.4,127.4,179.7,224.6,207.9c12.3,3.6,25.1,5.2,38.6,4.3
					c72.5-4.4,117.8-54.4,156.7-92.6c30.5-29.8,59.6-53.3,95.1-41.3c2,0.4,4,1,6.3,1.6c70.6,20.2,229.4,113.5,337,69.1
					c302-127,310.9-129.2,310.9-129.2"/>
				
					<linearGradient id="SVGID_8_" gradientUnits="userSpaceOnUse" x1="-144.4688" y1="272.9112" x2="2431.615" y2="272.9112" gradientTransform="matrix(1 5.429583e-003 5.429583e-003 -0.7576 -2.0763 866.1981)">
					<stop  offset="0" style="stop-color:#F9F48D"/>
					<stop  offset="0.2599" style="stop-color:#70B8F1"/>
					<stop  offset="0.5108" style="stop-color:#68B8F1"/>
					<stop  offset="0.7903" style="stop-color:#7AB2A9"/>
					<stop  offset="1" style="stop-color:#61D6A1"/>
				</linearGradient>
				<path fill="none" stroke="url(#SVGID_8_)" stroke-width="3" stroke-miterlimit="10" d="M-144.3,752.2
					C-97.2,869.6,114.4,624.5,212,616.7c97.7-7.9,76.9,146.5,238.4,134.3s116.2-165.7,267.7-178.8c151.5-13.1,93,130.6,255.2,130.9
					c160.2,0.1,154.2-149.9,259.7-161.5c10.7-1.2,20.9-0.2,30.9,2.7c82,23.6,126.1,180.9,224.4,208.2c12.4,3.4,25.2,4.9,38.7,4
					c72.3-4.9,117.6-55.4,156.4-93.8c30.2-29.6,59.8-53.1,95.4-41.3c2,0.4,4.1,1,6.3,1.6c73.8,21.1,230.9,114.6,337.4,71.2
					c302.3-126.3,308.8-128,308.8-128"/>
				
					<linearGradient id="SVGID_9_" gradientUnits="userSpaceOnUse" x1="-144.5715" y1="263.3064" x2="2431.1799" y2="263.3064" gradientTransform="matrix(1 5.242356e-003 5.242356e-003 -0.6969 -2.0047 836.3292)">
					<stop  offset="0" style="stop-color:#F8F491"/>
					<stop  offset="0.2599" style="stop-color:#73BAF1"/>
					<stop  offset="0.5108" style="stop-color:#6CBAF1"/>
					<stop  offset="0.7903" style="stop-color:#7DB4AC"/>
					<stop  offset="1" style="stop-color:#65D7A4"/>
				</linearGradient>
				<path fill="none" stroke="url(#SVGID_9_)" stroke-width="3" stroke-miterlimit="10" d="M-144.4,743.8
					c46.8,117.5,259-127.1,356.6-134.7c97.7-7.7,76.6,146.6,238.1,134.9s116.6-165.4,268.1-178.1c151.5-12.7,92.7,130.8,254.9,131.5
					c159.7,0.5,156.2-148.5,261-160.8c10.7-1.3,20.9-0.3,30.9,2.4c82.9,22.8,124.9,182.1,224.3,208.6c12.4,3.3,25.3,4.7,38.8,3.7
					c72.1-5.4,117.3-56.6,156-95.1c29.8-29.5,59.9-53,95.7-41.3c2,0.4,4.1,1,6.3,1.6c77.1,22,232.3,115.7,337.7,73.3
					c302.5-125.6,306.7-126.8,306.7-126.8"/>
				
					<linearGradient id="SVGID_10_" gradientUnits="userSpaceOnUse" x1="-144.6629" y1="251.8822" x2="2430.8362" y2="251.8822" gradientTransform="matrix(1 5.055129e-003 5.055129e-003 -0.6363 -1.9331 806.4603)">
					<stop  offset="0" style="stop-color:#F6F495"/>
					<stop  offset="0.2599" style="stop-color:#77BDF2"/>
					<stop  offset="0.5108" style="stop-color:#6FBDF2"/>
					<stop  offset="0.7903" style="stop-color:#80B7AF"/>
					<stop  offset="1" style="stop-color:#69D9A7"/>
				</linearGradient>
				<path fill="none" stroke="url(#SVGID_10_)" stroke-width="3" stroke-miterlimit="10" d="M-144.6,735.5
					C-98,853.1,114.7,609,212.3,601.6c97.7-7.5,76.3,146.8,237.8,135.4c161.5-11.4,117-165.1,268.5-177.5
					c151.5-12.4,92.4,131,254.6,132c159.1,0.8,158.1-147.2,262.4-160.2c10.7-1.3,20.9-0.5,31,2.2c83.7,22,123.6,183.3,224.2,209
					c12.5,3.2,25.4,4.5,38.8,3.3c71.9-6,117-57.7,155.7-96.3c29.4-29.4,60.1-52.9,95.9-41.3c2,0.4,4.1,1,6.3,1.6
					c80.3,22.9,233.7,116.8,338,75.4c302.8-124.9,304.6-125.5,304.6-125.5"/>
				
					<linearGradient id="SVGID_11_" gradientUnits="userSpaceOnUse" x1="-144.7397" y1="238.0567" x2="2431.0945" y2="238.0567" gradientTransform="matrix(1 4.867902e-003 4.867902e-003 -0.5757 -1.8615 776.5914)">
					<stop  offset="0" style="stop-color:#F5F599"/>
					<stop  offset="0.2599" style="stop-color:#7ABFF2"/>
					<stop  offset="0.5108" style="stop-color:#73BFF2"/>
					<stop  offset="0.7903" style="stop-color:#83BAB2"/>
					<stop  offset="1" style="stop-color:#6DDAAB"/>
				</linearGradient>
				<path fill="none" stroke="url(#SVGID_11_)" stroke-width="3" stroke-miterlimit="10" d="M-144.7,727.1
					C-98.4,844.8,114.8,601.2,212.5,594c97.7-7.2,75.9,147,237.4,135.9s117.3-164.8,268.9-176.9c151.5-12,92.1,131.2,254.3,132.6
					c158.6,1.1,160-146,263.7-159.5c10.7-1.4,20.9-0.6,31.1,1.9c84.6,21.2,122.3,184.5,224.1,209.4c12.6,3.1,25.5,4.2,38.9,3
					c71.7-6.5,116.8-58.8,155.3-97.6c29.1-29.2,60.2-52.7,96.2-41.4c2,0.4,4.1,1,6.3,1.6c83.5,23.8,235.2,117.9,338.4,77.5
					c303.1-124.2,302.5-124.3,302.5-124.3"/>
				
					<linearGradient id="SVGID_12_" gradientUnits="userSpaceOnUse" x1="-144.7968" y1="220.9828" x2="2430.5959" y2="220.9828" gradientTransform="matrix(1 4.680675e-003 4.680675e-003 -0.5151 -1.7899 746.7225)">
					<stop  offset="0" style="stop-color:#F3F59D"/>
					<stop  offset="0.2599" style="stop-color:#7DC2F3"/>
					<stop  offset="0.5108" style="stop-color:#76C2F3"/>
					<stop  offset="0.7903" style="stop-color:#86BCB5"/>
					<stop  offset="1" style="stop-color:#70DBAE"/>
				</linearGradient>
				<path fill="none" stroke="url(#SVGID_12_)" stroke-width="3" stroke-miterlimit="10" d="M-144.9,718.8
					c46,117.8,259.8-125.3,357.5-132.2c97.7-7,75.6,147.1,237.1,136.5S567.4,558.4,719,546.7c151.5-11.7,91.8,131.4,254,133.2
					C1131,681.3,1134.9,535.1,1238,521c10.7-1.5,21-0.8,31.1,1.6c85.5,20.4,121,185.8,223.9,209.7c12.7,3,25.6,4,39,2.6
					c71.4-7,116.6-59.9,155-98.8c28.7-29.1,60.3-52.6,96.5-41.4c2,0.4,4.1,1,6.3,1.6c86.8,24.7,236.6,119,338.7,79.6
					c303.3-123.5,300.4-123,300.4-123"/>
				
					<linearGradient id="SVGID_13_" gradientUnits="userSpaceOnUse" x1="-144.827" y1="199.3613" x2="2430.1055" y2="199.3613" gradientTransform="matrix(1 4.493448e-003 4.493448e-003 -0.4545 -1.7183 716.8536)">
					<stop  offset="0" style="stop-color:#F2F6A0"/>
					<stop  offset="0.2599" style="stop-color:#80C4F3"/>
					<stop  offset="0.5108" style="stop-color:#7AC4F3"/>
					<stop  offset="0.7903" style="stop-color:#88BFB8"/>
					<stop  offset="1" style="stop-color:#74DDB1"/>
				</linearGradient>
				<path fill="none" stroke="url(#SVGID_13_)" stroke-width="3" stroke-miterlimit="10" d="M-145,710.4
					C-99.3,828.3,115.1,585.7,212.8,579c97.8-6.8,75.2,147.3,236.8,137s118.1-164.3,269.6-175.6s91.5,131.6,253.7,133.8
					c157.6,1.8,163.8-143.5,266.4-158.2c10.6-1.5,21-1,31.2,1.3c86.4,19.6,119.8,187,223.8,210.1c12.8,2.8,25.7,3.7,39.1,2.3
					c71.2-7.5,116.3-61,154.6-100.1c28.4-28.9,60.5-52.5,96.8-41.4c2,0.4,4.1,1,6.3,1.6c90,25.6,238,120,339.1,81.7
					c303.6-122.8,298.3-121.8,298.3-121.8"/>
				
					<linearGradient id="SVGID_14_" gradientUnits="userSpaceOnUse" x1="-144.8181" y1="171.0938" x2="2429.6277" y2="171.0938" gradientTransform="matrix(1 4.306221e-003 4.306221e-003 -0.3939 -1.6467 686.9847)">
					<stop  offset="0" style="stop-color:#F0F6A4"/>
					<stop  offset="0.2599" style="stop-color:#84C7F4"/>
					<stop  offset="0.5108" style="stop-color:#7DC7F4"/>
					<stop  offset="0.7903" style="stop-color:#8BC2BB"/>
					<stop  offset="1" style="stop-color:#78DEB4"/>
				</linearGradient>
				<path fill="none" stroke="url(#SVGID_14_)" stroke-width="3" stroke-miterlimit="10" d="M-145.2,702
					c45.5,118,260.4-124.1,358.1-130.6c97.8-6.6,74.9,147.5,236.5,137.5c161.6-9.9,118.4-164,270-175s91.2,131.8,253.4,134.3
					c157,2.1,165.7-142.3,267.8-157.5c10.6-1.6,21-1.1,31.3,1.1c87.3,18.8,118.5,188.2,223.7,210.5c12.8,2.7,25.8,3.5,39.2,2
					c71-8,116.1-62.1,154.3-101.3c28-28.8,60.6-52.4,97.1-41.4c2,0.4,4.2,1,6.4,1.6c93.2,26.5,239.4,121.1,339.4,83.8
					c303.9-122.1,296.2-120.5,296.2-120.5"/>
				
					<linearGradient id="SVGID_15_" gradientUnits="userSpaceOnUse" x1="-144.7492" y1="132.5553" x2="2429.1685" y2="132.5553" gradientTransform="matrix(1 4.118994e-003 4.118994e-003 -0.3333 -1.5751 657.1158)">
					<stop  offset="0" style="stop-color:#EFF6A8"/>
					<stop  offset="0.2599" style="stop-color:#87C9F4"/>
					<stop  offset="0.5108" style="stop-color:#81C9F4"/>
					<stop  offset="0.7903" style="stop-color:#8EC4BE"/>
					<stop  offset="1" style="stop-color:#7CE0B8"/>
				</linearGradient>
				<path fill="none" stroke="url(#SVGID_15_)" stroke-width="3" stroke-miterlimit="10" d="M-145.3,693.7
					c45.2,118.1,260.6-123.5,358.3-129.8c97.8-6.3,74.6,147.6,236.2,138.1S568,538.2,719.6,527.5c151.6-10.7,90.9,132,253,134.9
					c156.5,2.5,167.7-141.1,269.2-156.9c10.6-1.7,21-1.3,31.3,0.8c88.2,18,117.2,189.4,223.6,210.9c12.9,2.6,25.9,3.3,39.3,1.6
					c70.8-8.6,115.8-63.2,153.9-102.6c27.7-28.6,60.8-52.2,97.4-41.5c2,0.4,4.2,1,6.4,1.6c96.4,27.4,240.9,122.2,339.7,85.9
					C2437.6,540.9,2427.5,543,2427.5,543"/>
				
					<linearGradient id="SVGID_16_" gradientUnits="userSpaceOnUse" x1="-144.5811" y1="76.8991" x2="2428.7356" y2="76.8991" gradientTransform="matrix(1 3.931767e-003 3.931767e-003 -0.2727 -1.5035 627.2469)">
					<stop  offset="0" style="stop-color:#EEF7AC"/>
					<stop  offset="0.2599" style="stop-color:#8ACBF5"/>
					<stop  offset="0.5108" style="stop-color:#85CBF5"/>
					<stop  offset="0.7903" style="stop-color:#91C7C1"/>
					<stop  offset="1" style="stop-color:#7FE1BB"/>
				</linearGradient>
				<path fill="none" stroke="url(#SVGID_16_)" stroke-width="3" stroke-miterlimit="10" d="M-145.4,685.3
					c44.9,118.2,260.9-122.9,358.6-129c97.8-6.1,74.2,147.8,235.8,138.6c161.6-9.2,119.2-163.5,270.8-173.8s90.5,132.2,252.7,135.5
					c156,2.8,169.6-139.8,270.5-156.2c10.6-1.7,21-1.5,31.4,0.5c89.1,17.1,115.9,190.7,223.5,211.2c13,2.5,26,3,39.3,1.3
					c70.6-9.1,115.6-64.2,153.6-103.8c27.3-28.5,60.9-52.1,97.7-41.5c2,0.4,4.2,1,6.4,1.6c99.7,28.3,242.3,123.3,340.1,88
					c304.4-120.7,292-118,292-118"/>
				
					<linearGradient id="SVGID_17_" gradientUnits="userSpaceOnUse" x1="-144.2294" y1="-10.5468" x2="2428.3447" y2="-10.5468" gradientTransform="matrix(1 3.744540e-003 3.744540e-003 -0.2121 -1.4319 597.378)">
					<stop  offset="0" style="stop-color:#ECF7B0"/>
					<stop  offset="0.2599" style="stop-color:#8ECEF5"/>
					<stop  offset="0.5108" style="stop-color:#88CEF5"/>
					<stop  offset="0.7903" style="stop-color:#94CAC4"/>
					<stop  offset="1" style="stop-color:#83E3BE"/>
				</linearGradient>
				<path fill="none" stroke="url(#SVGID_17_)" stroke-width="3" stroke-miterlimit="10" d="M-145.6,676.9
					c44.7,118.3,261.2-122.3,358.9-128.1c97.8-5.9,73.9,148,235.5,139.1S568.4,524.7,720,514.8s90.2,132.4,252.4,136
					c155.4,3.2,171.5-138.6,271.9-155.6c10.6-1.8,21-1.6,31.5,0.2c90,16.3,114.6,191.9,223.3,211.6c13.1,2.4,26.1,2.8,39.4,0.9
					c70.4-9.6,115.4-65.3,153.2-105.1c27-28.3,61.1-52,98-41.5c2.1,0.4,4.2,1,6.4,1.6c102.9,29.2,243.7,124.4,340.4,90.1
					c304.7-120,290-116.8,290-116.8"/>
				
					<linearGradient id="SVGID_18_" gradientUnits="userSpaceOnUse" x1="-143.4748" y1="-167.9297" x2="2428.0315" y2="-167.9297" gradientTransform="matrix(1 3.557313e-003 3.557313e-003 -0.1515 -1.3603 567.5091)">
					<stop  offset="0" style="stop-color:#EBF8B4"/>
					<stop  offset="0.2599" style="stop-color:#91D0F6"/>
					<stop  offset="0.5108" style="stop-color:#8CD0F6"/>
					<stop  offset="0.7903" style="stop-color:#97CCC7"/>
					<stop  offset="1" style="stop-color:#87E4C1"/>
				</linearGradient>
				<path fill="none" stroke="url(#SVGID_18_)" stroke-width="3" stroke-miterlimit="10" d="M-145.7,668.6
					c44.4,118.4,261.5-121.7,359.2-127.3c97.8-5.7,73.5,148.1,235.2,139.7c161.7-8.5,119.9-162.9,271.6-172.5
					C871.9,498.7,810.2,641,972.3,645c154.9,3.5,173.4-137.4,273.2-154.9c10.6-1.9,21.1-1.8,31.5,0c90.9,15.5,113.3,193.2,223.2,212
					c13.1,2.3,26.2,2.6,39.5,0.6c70.1-10.1,115.1-66.4,152.9-106.3c26.7-28.2,61.2-51.8,98.2-41.5c2.1,0.4,4.2,1,6.4,1.6
					c106.1,30.1,245.2,125.5,340.8,92.2c305-119.3,287.9-115.6,287.9-115.6"/>
				
					<linearGradient id="SVGID_19_" gradientUnits="userSpaceOnUse" x1="-141.5134" y1="-536.23" x2="2427.9246" y2="-536.23" gradientTransform="matrix(1 3.370086e-003 3.370086e-003 -9.089585e-002 -1.2887 537.6402)">
					<stop  offset="0" style="stop-color:#E9F8B8"/>
					<stop  offset="0.2599" style="stop-color:#94D3F6"/>
					<stop  offset="0.5108" style="stop-color:#8FD3F6"/>
					<stop  offset="0.7903" style="stop-color:#9ACFCA"/>
					<stop  offset="1" style="stop-color:#8BE5C5"/>
				</linearGradient>
				<path fill="none" stroke="url(#SVGID_19_)" stroke-width="3" stroke-miterlimit="10" d="M-145.9,660.2
					c44.1,118.5,261.7-121.1,359.5-126.5c97.8-5.4,73.2,148.3,234.9,140.2c161.7-8.1,120.3-162.6,272-171.9
					c151.7-9.3,89.6,132.8,251.8,137.2c154.4,3.8,175.3-136.2,274.6-154.2c10.6-1.9,21.1-2,31.6-0.3
					c91.8,14.6,112,194.4,223.1,212.4c13.2,2.1,26.3,2.3,39.6,0.3c69.9-10.6,114.9-67.5,152.5-107.6c26.3-28,61.4-51.7,98.5-41.5
					c2.1,0.4,4.2,1,6.4,1.6c109.3,31,246.6,126.6,341.1,94.3c305.2-118.6,285.8-114.3,285.8-114.3"/>
				
					<linearGradient id="SVGID_20_" gradientUnits="userSpaceOnUse" x1="-131.1083" y1="-2429.5352" x2="2429.1648" y2="-2429.5352" gradientTransform="matrix(1 3.182859e-003 3.182859e-003 -3.029053e-002 -1.2171 507.7713)">
					<stop  offset="0" style="stop-color:#E8F8BC"/>
					<stop  offset="0.2599" style="stop-color:#97D5F7"/>
					<stop  offset="0.5108" style="stop-color:#93D5F7"/>
					<stop  offset="0.7903" style="stop-color:#9DD2CD"/>
					<stop  offset="1" style="stop-color:#8FE7C8"/>
				</linearGradient>
				<path fill="none" stroke="url(#SVGID_20_)" stroke-width="3" stroke-miterlimit="10" d="M-146,651.8
					c43.9,118.6,262-120.5,359.8-125.7c97.8-5.2,72.9,148.5,234.5,140.7S569,504.5,720.7,495.6c151.7-8.9,89.3,133.1,251.5,137.8
					c153.9,4.2,177.2-135,275.9-153.6c10.6-2,21.1-2.1,31.7-0.6c92.7,13.8,110.8,195.7,223,212.8c13.3,2,26.5,2.1,39.7-0.1
					c69.7-11.2,114.7-68.6,152.2-108.8c26-27.9,61.5-51.6,98.8-41.6c2.1,0.4,4.2,1,6.5,1.6c112.6,31.9,248,127.7,341.4,96.4
					c305.5-117.9,283.7-113.1,283.7-113.1"/>
				
					<linearGradient id="SVGID_21_" gradientUnits="userSpaceOnUse" x1="-162.9122" y1="3249.7778" x2="2423.7732" y2="3249.7778" gradientTransform="matrix(1 2.995632e-003 2.995632e-003 3.031480e-002 -1.1455 477.9024)">
					<stop  offset="0" style="stop-color:#E6F9C0"/>
					<stop  offset="0.2599" style="stop-color:#9BD8F7"/>
					<stop  offset="0.5108" style="stop-color:#96D8F7"/>
					<stop  offset="0.7903" style="stop-color:#A0D4CF"/>
					<stop  offset="1" style="stop-color:#92E8CB"/>
				</linearGradient>
				<path fill="none" stroke="url(#SVGID_21_)" stroke-width="3" stroke-miterlimit="10" d="M-146.1,643.5
					c43.6,118.7,262.3-119.9,360.1-124.9c97.8-5,72.5,148.6,234.2,141.3s121-162.1,272.8-170.7s89,133.3,251.1,138.3
					c153.3,4.5,179.1-133.8,277.3-152.9c10.6-2.1,21.1-2.3,31.7-0.8c93.6,12.9,109.5,196.9,222.8,213.1c13.4,1.9,26.6,1.8,39.8-0.4
					c69.5-11.7,114.4-69.7,151.8-110.1c25.6-27.7,61.6-51.4,99.1-41.6c2.1,0.4,4.3,1,6.5,1.6c115.8,32.8,249.5,128.8,341.8,98.5
					c305.8-117.2,281.6-111.8,281.6-111.8"/>
				
					<linearGradient id="SVGID_22_" gradientUnits="userSpaceOnUse" x1="-152.5081" y1="1356.9039" x2="2425.0498" y2="1356.9039" gradientTransform="matrix(1 2.808405e-003 2.808405e-003 9.092012e-002 -1.0739 448.0335)">
					<stop  offset="0" style="stop-color:#E5F9C4"/>
					<stop  offset="0.2599" style="stop-color:#9EDAF8"/>
					<stop  offset="0.5108" style="stop-color:#9ADAF8"/>
					<stop  offset="0.7903" style="stop-color:#A3D7D2"/>
					<stop  offset="1" style="stop-color:#96EACE"/>
				</linearGradient>
				<path fill="none" stroke="url(#SVGID_22_)" stroke-width="3" stroke-miterlimit="10" d="M-146.3,635.1
					c43.3,118.8,262.6-119.3,360.4-124c97.8-4.8,72.2,148.8,233.9,141.8s121.4-161.8,273.1-170s88.7,133.5,250.8,138.9
					c152.8,4.8,181-132.6,278.6-152.2c10.6-2.1,21.1-2.5,31.8-1.1c94.5,12.1,108.2,198.2,222.7,213.5c13.4,1.8,26.7,1.6,39.8-0.8
					c69.3-12.2,114.2-70.7,151.5-111.3c25.3-27.5,61.8-51.3,99.4-41.6c2.1,0.4,4.3,1,6.5,1.6c119,33.7,250.9,129.9,342.1,100.6
					c306-116.5,279.5-110.6,279.5-110.6"/>
				
					<linearGradient id="SVGID_23_" gradientUnits="userSpaceOnUse" x1="-150.5438" y1="978.3116" x2="2425.0164" y2="978.3116" gradientTransform="matrix(1 2.621178e-003 2.621178e-003 0.1515 -1.0023 418.1646)">
					<stop  offset="0" style="stop-color:#E3F9C8"/>
					<stop  offset="0.2599" style="stop-color:#A1DDF8"/>
					<stop  offset="0.5108" style="stop-color:#9DDDF8"/>
					<stop  offset="0.7903" style="stop-color:#A6DAD5"/>
					<stop  offset="1" style="stop-color:#9AEBD2"/>
				</linearGradient>
				<path fill="none" stroke="url(#SVGID_23_)" stroke-width="3" stroke-miterlimit="10" d="M-146.4,626.7
					c43,118.9,262.8-118.7,360.7-123.2c97.9-4.5,71.8,149,233.6,142.3c161.7-6.6,121.8-161.5,273.5-169.4s88.4,133.7,250.5,139.5
					c152.3,5.2,183-131.4,280-151.6c10.6-2.2,21.2-2.7,31.9-1.4c95.4,11.2,106.9,199.5,222.6,213.9c13.5,1.7,26.8,1.4,39.9-1.1
					c69-12.7,114-71.8,151.1-112.6c25-27.4,61.9-51.2,99.7-41.6c2.1,0.4,4.3,0.9,6.5,1.6c122.2,34.6,252.3,131,342.4,102.7
					c306.3-115.8,277.4-109.3,277.4-109.3"/>
				
					<linearGradient id="SVGID_24_" gradientUnits="userSpaceOnUse" x1="-149.7847" y1="816.061" x2="2424.8135" y2="816.061" gradientTransform="matrix(1 2.433951e-003 2.433951e-003 0.2121 -0.9307 388.2957)">
					<stop  offset="0" style="stop-color:#E2FACC"/>
					<stop  offset="0.2599" style="stop-color:#A4DFF9"/>
					<stop  offset="0.5108" style="stop-color:#A1DFF9"/>
					<stop  offset="0.7903" style="stop-color:#A9DCD8"/>
					<stop  offset="1" style="stop-color:#9EECD5"/>
				</linearGradient>
				<path fill="none" stroke="url(#SVGID_24_)" stroke-width="3" stroke-miterlimit="10" d="M-146.6,618.4
					c42.8,119,263.1-118.1,360.9-122.4c97.9-4.3,71.5,149.1,233.3,142.9s122.2-161.2,273.9-168.8c151.8-7.6,88.1,133.9,250.2,140.1
					c151.7,5.5,184.9-130.2,281.4-150.9c10.6-2.3,21.2-2.8,31.9-1.7c96.3,10.3,105.6,200.7,222.5,214.3c13.6,1.6,26.9,1.1,40-1.5
					c68.8-13.3,113.8-72.9,150.8-113.8c24.6-27.2,62.1-51,100-41.7c2.1,0.4,4.3,0.9,6.5,1.6c125.5,35.5,253.8,132.1,342.8,104.8
					c306.6-115.1,275.3-108.1,275.3-108.1"/>
				
					<linearGradient id="SVGID_25_" gradientUnits="userSpaceOnUse" x1="-149.4269" y1="725.9253" x2="2424.5679" y2="725.9253" gradientTransform="matrix(1 2.246724e-003 2.246724e-003 0.2727 -0.8591 358.4268)">
					<stop  offset="0" style="stop-color:#E0FAD0"/>
					<stop  offset="0.2599" style="stop-color:#A8E2F9"/>
					<stop  offset="0.5108" style="stop-color:#A4E2F9"/>
					<stop  offset="0.7903" style="stop-color:#ACDFDB"/>
					<stop  offset="1" style="stop-color:#A2EED8"/>
				</linearGradient>
				<path fill="none" stroke="url(#SVGID_25_)" stroke-width="3" stroke-miterlimit="10" d="M-146.7,610
					c42.5,119.1,263.4-117.5,361.2-121.6c97.9-4.1,71.2,149.3,232.9,143.4s122.5-161,274.3-168.2c151.8-7.2,87.8,134.1,249.9,140.6
					c151.2,5.8,186.8-129,282.7-150.3c10.6-2.3,21.2-3,32-1.9c97.2,9.5,104.3,202,222.3,214.6c13.6,1.5,27,0.9,40.1-1.8
					c68.6-13.8,113.5-74,150.4-115.1c24.3-27.1,62.2-50.9,100.3-41.7c2.1,0.4,4.3,0.9,6.5,1.6c128.7,36.4,255.2,133.1,343.1,106.9
					c306.8-114.4,273.2-106.8,273.2-106.8"/>
				
					<linearGradient id="SVGID_26_" gradientUnits="userSpaceOnUse" x1="-149.2513" y1="668.5693" x2="2424.3147" y2="668.5693" gradientTransform="matrix(1 2.059497e-003 2.059497e-003 0.3333 -0.7875 328.5579)">
					<stop  offset="0" style="stop-color:#DFFBD4"/>
					<stop  offset="0.2599" style="stop-color:#ABE4FA"/>
					<stop  offset="0.5108" style="stop-color:#A8E4FA"/>
					<stop  offset="0.7903" style="stop-color:#AFE2DE"/>
					<stop  offset="1" style="stop-color:#A5EFDB"/>
				</linearGradient>
				<path fill="none" stroke="url(#SVGID_26_)" stroke-width="3" stroke-miterlimit="10" d="M-146.9,601.6
					c42.2,119.2,263.7-116.9,361.5-120.8c97.9-3.9,70.8,149.5,232.6,143.9S570.2,464.1,722,457.3c151.8-6.9,87.5,134.3,249.6,141.2
					c150.7,6.2,188.7-127.8,284.1-149.6c10.6-2.4,21.2-3.2,32-2.2c98.1,8.6,103,203.3,222.2,215c13.7,1.3,27.1,0.6,40.2-2.1
					c68.4-14.3,113.3-75,150.1-116.4c23.9-26.9,62.4-50.8,100.5-41.7c2.1,0.4,4.3,0.9,6.5,1.6c131.9,37.3,256.6,134.2,343.5,109.1
					c307.1-113.7,271.1-105.6,271.1-105.6"/>
				
					<linearGradient id="SVGID_27_" gradientUnits="userSpaceOnUse" x1="-149.1735" y1="628.8638" x2="2424.0676" y2="628.8638" gradientTransform="matrix(1 1.872270e-003 1.872270e-003 0.3939 -0.716 298.689)">
					<stop  offset="0" style="stop-color:#DEFBD8"/>
					<stop  offset="0.2599" style="stop-color:#AEE6FA"/>
					<stop  offset="0.5108" style="stop-color:#ACE6FA"/>
					<stop  offset="0.7903" style="stop-color:#B2E4E1"/>
					<stop  offset="1" style="stop-color:#A9F1DF"/>
				</linearGradient>
				<path fill="none" stroke="url(#SVGID_27_)" stroke-width="3" stroke-miterlimit="10" d="M-147,593.3
					c42,119.3,263.9-116.3,361.8-119.9c97.9-3.6,70.5,149.6,232.3,144.5c161.8-5.2,123.3-160.4,275.1-166.9
					c151.8-6.5,87.2,134.5,249.2,141.8c150.2,6.5,190.6-126.6,285.4-148.9c10.6-2.5,21.2-3.3,32.1-2.5
					c99,7.7,101.7,204.6,222.1,215.4c13.8,1.2,27.2,0.4,40.3-2.5c68.2-14.8,113.1-76.1,149.7-117.6c23.6-26.7,62.5-50.6,100.8-41.7
					c2.2,0.4,4.3,0.9,6.6,1.6c135.1,38.2,258.1,135.3,343.8,111.2c307.4-113,269-104.3,269-104.3"/>
				
					<linearGradient id="SVGID_28_" gradientUnits="userSpaceOnUse" x1="-149.1542" y1="599.7487" x2="2423.833" y2="599.7487" gradientTransform="matrix(1 1.685043e-003 1.685043e-003 0.4546 -0.6444 268.8201)">
					<stop  offset="0" style="stop-color:#DCFBDC"/>
					<stop  offset="0.2599" style="stop-color:#B2E9FB"/>
					<stop  offset="0.5108" style="stop-color:#AFE9FB"/>
					<stop  offset="0.7903" style="stop-color:#B5E7E4"/>
					<stop  offset="1" style="stop-color:#ADF2E2"/>
				</linearGradient>
				<path fill="none" stroke="url(#SVGID_28_)" stroke-width="3" stroke-miterlimit="10" d="M-147.1,584.9
					c41.7,119.4,264.2-115.7,362.1-119.1c97.9-3.4,70.1,149.8,232,145s123.6-160.1,275.5-166.3s86.9,134.7,248.9,142.4
					c149.6,6.8,192.5-125.5,286.8-148.3c10.6-2.6,21.2-3.5,32.2-2.8c99.9,6.8,100.4,205.9,222,215.8c13.9,1.1,27.3,0.2,40.3-2.8
					c68-15.3,112.9-77.2,149.4-118.9c23.3-26.6,62.7-50.5,101.1-41.7c2.2,0.4,4.4,0.9,6.6,1.6c138.4,39.1,259.5,136.4,344.1,113.3
					c307.6-112.3,266.9-103.1,266.9-103.1"/>
				
					<linearGradient id="SVGID_29_" gradientUnits="userSpaceOnUse" x1="-149.1727" y1="577.4858" x2="2423.614" y2="577.4858" gradientTransform="matrix(1 1.497816e-003 1.497816e-003 0.5152 -0.5728 238.9512)">
					<stop  offset="0" style="stop-color:#DBFCDF"/>
					<stop  offset="0.2599" style="stop-color:#B5EBFB"/>
					<stop  offset="0.5108" style="stop-color:#B3EBFB"/>
					<stop  offset="0.7903" style="stop-color:#B7EAE7"/>
					<stop  offset="1" style="stop-color:#B1F4E5"/>
				</linearGradient>
				<path fill="none" stroke="url(#SVGID_29_)" stroke-width="3" stroke-miterlimit="10" d="M-147.3,576.6
					c41.4,119.5,264.5-115.1,362.4-118.3c97.9-3.2,69.8,150,231.6,145.5s124-159.8,275.9-165.7S809.2,573,971.2,581.1
					c149.1,7.2,194.4-124.3,288.1-147.6c10.6-2.6,21.3-3.7,32.2-3c100.8,5.9,99.1,207.2,221.9,216.1c13.9,1,27.4-0.1,40.4-3.2
					c67.7-15.9,112.7-78.3,149-120.1c22.9-26.4,62.8-50.4,101.4-41.8c2.2,0.4,4.4,0.9,6.6,1.6c141.6,40,260.9,137.5,344.5,115.4
					c307.9-111.7,264.8-101.9,264.8-101.9"/>
				
					<linearGradient id="SVGID_30_" gradientUnits="userSpaceOnUse" x1="-149.2168" y1="559.9114" x2="2423.4131" y2="559.9114" gradientTransform="matrix(1 1.310589e-003 1.310589e-003 0.5758 -0.5012 209.0823)">
					<stop  offset="0" style="stop-color:#D9FCE3"/>
					<stop  offset="0.2599" style="stop-color:#B8EEFC"/>
					<stop  offset="0.5108" style="stop-color:#B6EEFC"/>
					<stop  offset="0.7903" style="stop-color:#BAECEA"/>
					<stop  offset="1" style="stop-color:#B4F5E8"/>
				</linearGradient>
				<path fill="none" stroke="url(#SVGID_30_)" stroke-width="3" stroke-miterlimit="10" d="M-147.4,568.2
					c41.1,119.6,264.8-114.5,362.7-117.5c97.9-3,69.4,150.1,231.3,146.1s124.4-159.6,276.3-165s86.3,135.1,248.3,143.5
					c148.6,7.5,196.3-123.1,289.5-147c10.6-2.7,21.3-3.9,32.3-3.3c101.7,5,97.8,208.5,221.7,216.5c14,0.9,27.5-0.3,40.5-3.5
					c67.5-16.4,112.5-79.3,148.7-121.4c22.6-26.2,62.9-50.2,101.7-41.8c2.2,0.4,4.4,0.9,6.6,1.6C1957,517.3,2074.5,615,2157,593.9
					c308.2-111,262.7-100.6,262.7-100.6"/>
				
					<linearGradient id="SVGID_31_" gradientUnits="userSpaceOnUse" x1="-149.2792" y1="545.6857" x2="2423.2314" y2="545.6857" gradientTransform="matrix(1 1.123362e-003 1.123362e-003 0.6364 -0.3977 179.2134)">
					<stop  offset="0" style="stop-color:#D8FDE7"/>
					<stop  offset="0.2599" style="stop-color:#BBF0FC"/>
					<stop  offset="0.5108" style="stop-color:#BAF0FC"/>
					<stop  offset="0.7903" style="stop-color:#BDEFED"/>
					<stop  offset="1" style="stop-color:#B8F6EC"/>
				</linearGradient>
				<path fill="none" stroke="url(#SVGID_31_)" stroke-width="3" stroke-miterlimit="10" d="M-147.6,559.8
					c40.9,119.7,265-113.9,363-116.7c97.9-2.7,69.1,150.3,231,146.6c161.9-3.7,124.7-159.3,276.7-164.4
					c151.9-5.1,86,135.3,248,144.1c148,7.8,198.2-121.9,290.8-146.3c10.6-2.8,21.3-4,32.4-3.6c102.6,4.2,96.5,209.8,221.6,216.9
					c14.1,0.8,27.6-0.5,40.6-3.8c67.3-16.9,112.2-80.4,148.3-122.6c22.3-26.1,63.1-50.1,102-41.8c2.2,0.4,4.4,0.9,6.6,1.6
					c148,41.8,263.8,139.7,345.2,119.6c308.4-110.3,260.6-99.4,260.6-99.4"/>
				
					<linearGradient id="SVGID_32_" gradientUnits="userSpaceOnUse" x1="-149.3551" y1="533.9351" x2="2423.0696" y2="533.9351" gradientTransform="matrix(1 9.361351e-004 9.361351e-004 0.697 -0.3314 149.3445)">
					<stop  offset="0" style="stop-color:#D6FDEB"/>
					<stop  offset="0.2599" style="stop-color:#BFF3FD"/>
					<stop  offset="0.5108" style="stop-color:#BDF3FD"/>
					<stop  offset="0.7903" style="stop-color:#C0F2F0"/>
					<stop  offset="1" style="stop-color:#BCF8EF"/>
				</linearGradient>
				<path fill="none" stroke="url(#SVGID_32_)" stroke-width="3" stroke-miterlimit="10" d="M-147.7,551.5
					c40.6,119.8,265.3-113.3,363.3-115.8c98-2.5,68.8,150.5,230.7,147.1c161.9-3.3,125.1-159,277-163.8
					c151.9-4.8,85.7,135.5,247.7,144.7c147.5,8.2,200.1-120.8,292.2-145.6c10.6-2.9,21.3-4.2,32.4-3.9
					c103.5,3.2,95.3,211.1,221.5,217.3c14.2,0.7,27.7-0.8,40.7-4.2c67.1-17.4,112-81.5,148-123.9c22-25.9,63.2-50,102.3-41.8
					c2.2,0.4,4.4,0.9,6.6,1.6c151.3,42.7,265.2,140.8,345.5,121.7c308.7-109.6,258.5-98.1,258.5-98.1"/>
				
					<linearGradient id="SVGID_33_" gradientUnits="userSpaceOnUse" x1="-149.4411" y1="524.0652" x2="2422.9282" y2="524.0652" gradientTransform="matrix(1 7.489080e-004 7.489080e-004 0.7576 -0.2651 119.4756)">
					<stop  offset="0" style="stop-color:#D5FDEF"/>
					<stop  offset="0.2599" style="stop-color:#C2F5FD"/>
					<stop  offset="0.5108" style="stop-color:#C1F5FD"/>
					<stop  offset="0.7903" style="stop-color:#C3F4F3"/>
					<stop  offset="1" style="stop-color:#C0F9F2"/>
				</linearGradient>
				<path fill="none" stroke="url(#SVGID_33_)" stroke-width="3" stroke-miterlimit="10" d="M-147.9,543.1
					c40.3,119.9,265.6-112.7,363.5-115c98-2.3,68.4,150.6,230.4,147.7S571.5,417,723.5,412.6s85.4,135.7,247.4,145.2
					c147,8.5,202-119.8,293.6-145c10.5-2.9,21.3-4.4,32.5-4.1c104.4,2.3,94,212.4,221.4,217.7c14.2,0.6,27.8-1,40.8-4.5
					c66.9-18,111.8-82.5,147.6-125.1c21.6-25.7,63.4-49.9,102.6-41.9c2.2,0.4,4.4,0.9,6.7,1.6c154.5,43.6,266.7,141.9,345.8,123.8
					c309-108.9,256.4-96.9,256.4-96.9"/>
				
					<linearGradient id="SVGID_34_" gradientUnits="userSpaceOnUse" x1="-149.535" y1="515.6605" x2="2422.8076" y2="515.6605" gradientTransform="matrix(1 5.616811e-004 5.616811e-004 0.8182 -0.1988 89.6067)">
					<stop  offset="0" style="stop-color:#D3FEF3"/>
					<stop  offset="0.2599" style="stop-color:#C5F8FE"/>
					<stop  offset="0.5108" style="stop-color:#C4F8FE"/>
					<stop  offset="0.7903" style="stop-color:#C6F7F6"/>
					<stop  offset="1" style="stop-color:#C4FBF5"/>
				</linearGradient>
				<path fill="none" stroke="url(#SVGID_34_)" stroke-width="3" stroke-miterlimit="10" d="M-148,534.7
					c40.1,119.9,265.9-112.1,363.8-114.2c98-2.1,68.1,150.8,230,148.2c162-2.6,125.9-158.5,277.8-162.5s85.1,135.9,247,145.8
					c146.5,8.8,203.9-118.6,294.9-144.3c10.5-3,21.3-4.6,32.6-4.4c105.3,1.2,92.7,213.9,221.2,218c14.3,0.5,27.9-1.3,40.8-4.9
					c66.7-18.5,111.7-83.5,147.3-126.4c21.4-25.5,63.5-49.7,102.8-41.9c2.2,0.4,4.5,0.9,6.7,1.6c157.7,44.5,268.1,143,346.2,125.9
					c309.3-108.2,254.3-95.6,254.3-95.6"/>
				
					<linearGradient id="SVGID_35_" gradientUnits="userSpaceOnUse" x1="-149.6351" y1="508.4134" x2="2422.708" y2="508.4134" gradientTransform="matrix(1 3.744540e-004 3.744540e-004 0.8788 -0.1326 59.7378)">
					<stop  offset="0" style="stop-color:#D2FEF7"/>
					<stop  offset="0.2599" style="stop-color:#C8FAFE"/>
					<stop  offset="0.5108" style="stop-color:#C8FAFE"/>
					<stop  offset="0.7903" style="stop-color:#C9FAF9"/>
					<stop  offset="1" style="stop-color:#C7FCF9"/>
				</linearGradient>
				<path fill="none" stroke="url(#SVGID_35_)" stroke-width="3" stroke-miterlimit="10" d="M-148.1,526.4
					C-108.3,646.4,118,414.8,216,413c98-1.8,67.7,151,229.7,148.7s126.2-158.2,278.2-161.9s84.8,136.1,246.7,146.4
					c145.9,9.2,205.8-117.4,296.3-143.7c10.5-3.1,21.4-4.8,32.6-4.7c106.2,0.4,91.4,215.2,221.1,218.4c14.4,0.4,28-1.5,40.9-5.2
					c66.4-19,111.5-84.6,146.9-127.6c21-25.4,63.7-49.6,103.1-41.9c2.2,0.4,4.5,0.9,6.7,1.6c160.9,45.4,269.5,144.1,346.5,128
					c309.5-107.5,252.2-94.4,252.2-94.4"/>
				
					<linearGradient id="SVGID_36_" gradientUnits="userSpaceOnUse" x1="-149.7402" y1="502.1015" x2="2422.6294" y2="502.1015" gradientTransform="matrix(1 1.872270e-004 1.872270e-004 0.9394 -6.627578e-002 29.8689)">
					<stop  offset="0" style="stop-color:#D0FFFB"/>
					<stop  offset="0.2599" style="stop-color:#CCFDFF"/>
					<stop  offset="0.5108" style="stop-color:#CBFDFF"/>
					<stop  offset="0.7903" style="stop-color:#CCFCFC"/>
					<stop  offset="1" style="stop-color:#CBFEFC"/>
				</linearGradient>
				<path fill="none" stroke="url(#SVGID_36_)" stroke-width="3" stroke-miterlimit="10" d="M-148.3,518
					c39.5,120.1,266.4-111,364.4-112.6c98-1.6,67.4,151.1,229.4,149.3c162-1.9,126.6-157.9,278.6-161.3s84.5,136.3,246.4,146.9
					c145.4,9.5,207.7-116.2,297.6-143c10.5-3.2,21.4-4.9,32.7-5c107.1-0.5,90.1,216.5,221,218.8c14.5,0.3,28.1-1.7,41-5.5
					c66.2-19.5,111.3-85.7,146.6-128.9c20.7-25.2,63.8-49.5,103.4-41.9c2.2,0.4,4.5,0.9,6.7,1.6c164.2,46.3,270.9,145.2,346.8,130.1
					c309.8-106.8,250.1-93.1,250.1-93.1"/>
				<path fill="none" stroke="#CFFFFF" stroke-width="3" stroke-miterlimit="10" d="M-148.4,509.6
					c39.3,120.2,266.7-110.4,364.7-111.7c98-1.4,67.1,151.3,229.1,149.8s127-157.6,279-160.7c152-3.1,84.2,136.5,246.1,147.5
					s223.7-146.2,331.7-147.6c108-1.3,88.8,217.7,220.9,219.2c89.2,1,145.2-84.2,187.3-136c21.5-26.5,69-52.1,110.4-40.4
					c167.4,47.2,272.4,146.3,347.2,132.2c310.1-106.1,248-91.9,248-91.9"/>
			</g>
		</g>
	</g>
</g>
</svg>
